<svg xmlns="http://www.w3.org/2000/svg" version="1.1" xmlns:xlink="http://www.w3.org/1999/xlink" viewBox="0 0 200 200"><rect width="200" height="200" fill="url('#gradient')"></rect><defs><linearGradient id="gradient" gradientTransform="rotate(32 0.5 0.5)"><stop offset="0%" stop-color="#4ab4d1"></stop><stop offset="100%" stop-color="#42e369"></stop></linearGradient></defs><g><g fill="#15294a" transform="matrix(5.849485220856859,0,0,5.849485220856859,7.7230035691037955,141.5892155677684)" stroke="#0e5278" stroke-width="0.4"><path d="M12.96-14.22L12.96 0L9.55 0L9.55-5.94L4.50-5.94L4.50 0L1.07 0L1.07-14.22L4.50-14.22L4.50-8.57L9.55-8.57L9.55-14.22L12.96-14.22ZM15.13-14.22L19.63-14.22L22.80-4.33L25.97-14.22L30.48-14.22L30.48 0L27.04 0L27.04-3.32L27.37-10.12L23.94 0L21.67 0L18.22-10.13L18.55-3.32L18.55 0L15.13 0L15.13-14.22Z"></path></g></g></svg>